<?xml version="1.0" encoding="utf-8"?>
<!-- Generator: Adobe Illustrator 16.0.4, SVG Export Plug-In . SVG Version: 6.00 Build 0)  -->
<!DOCTYPE svg PUBLIC "-//W3C//DTD SVG 1.1//EN" "http://www.w3.org/Graphics/SVG/1.1/DTD/svg11.dtd">
<svg version="1.1" id="Layer_1" xmlns="http://www.w3.org/2000/svg" xmlns:xlink="http://www.w3.org/1999/xlink" x="0px" y="0px"
	 width="355.5px" height="280px" viewBox="0 0 355.5 280" enable-background="new 0 0 355.5 280" xml:space="preserve">
<title>CDAC_Logo_RGB_v01Mark</title>
<path opacity="0.7" fill="#9AB5C6" enable-background="new    " d="M246.992,73.914c-16.568,0-30,13.432-30,30
	c0,22.368-18.133,40.5-40.5,40.5c-16.569,0-30,13.432-30,30s13.431,30,30,30c16.568,0,30-13.432,30-30
	c0-22.367,18.133-40.5,40.5-40.5l0,0c16.568,0,30-13.432,30-30S263.561,73.914,246.992,73.914z"/>
<path fill="#800000" d="M105.993,214.914c-22.368,0-40.5-18.132-40.5-40.5c0-22.367,18.132-40.5,40.5-40.5c16.568,0,30-13.432,30-30
	s-13.432-30-30-30c-16.569,0-30,13.432-30,30c0,22.368-18.132,40.5-40.5,40.5c-16.569,0-30,13.432-30,30s13.431,30,30,30
	c22.368,0,40.5,18.133,40.5,40.5c0,16.568,13.431,30,30,30c16.568,0,30-13.432,30-30S122.561,214.914,105.993,214.914z"/>
<path fill="#00B0EF" d="M105.892,144.27c22.367,0,40.5-18.133,40.5-40.5s-18.133-40.5-40.5-40.5l0,0c-16.569,0-30-13.432-30-30
	c0-16.567,13.431-30,30-30c16.568,0,30,13.433,30,30c0,22.369,18.132,40.5,40.5,40.5c16.567,0,30,13.433,30,30
	c0,16.568-13.433,30-30,30c-22.369,0-40.5,18.133-40.5,40.5l0,0c0,16.568-13.432,30-30,30c-16.569,0-30-13.432-30-30
	C75.892,157.702,89.323,144.27,105.892,144.27z"/>
<path fill="#00C6BA" d="M315.992,214.914c-22.367,0-40.5-18.132-40.5-40.5c0-22.367,18.133-40.5,40.5-40.5c16.568,0,30-13.432,30-30
	s-13.432-30-30-30s-30,13.432-30,30c0,22.368-18.133,40.5-40.5,40.5c-16.568,0-30,13.432-30,30s13.432,30,30,30
	c22.367,0,40.5,18.133,40.5,40.5c0,16.568,13.432,30,30,30s30-13.432,30-30S332.562,214.914,315.992,214.914z"/>
<circle opacity="0.7" fill="#9AB5C6" enable-background="new    " cx="317.492" cy="174.414" r="30"/>
</svg>
